<?xml version="1.0" encoding="UTF-8" standalone="no"?>
<svg
   viewBox="0 0 16 16"
   id="whatsapp"
   version="1.1"
   sodipodi:docname="whatsapp.svg"
   inkscape:version="1.3.2 (091e20e, 2023-11-25, custom)"
   xmlns:inkscape="http://www.inkscape.org/namespaces/inkscape"
   xmlns:sodipodi="http://sodipodi.sourceforge.net/DTD/sodipodi-0.dtd"
   xmlns="http://www.w3.org/2000/svg"
   xmlns:svg="http://www.w3.org/2000/svg">
  <defs
     id="defs2" />
  <sodipodi:namedview
     id="namedview2"
     pagecolor="#505050"
     bordercolor="#eeeeee"
     borderopacity="1"
     inkscape:showpageshadow="0"
     inkscape:pageopacity="0"
     inkscape:pagecheckerboard="0"
     inkscape:deskcolor="#505050"
     inkscape:zoom="51.9375"
     inkscape:cx="7.9807461"
     inkscape:cy="7.9807461"
     inkscape:window-width="1920"
     inkscape:window-height="1057"
     inkscape:window-x="-8"
     inkscape:window-y="-8"
     inkscape:window-maximized="1"
     inkscape:current-layer="whatsapp" />
  <path
     id="path2"
     d="M 7.9980469 0 C 3.5870513 0 0 3.5880044 0 8 A 7.94 7.94 0 0 0 1.5234375 12.689453 L 0.52539062 15.660156 L 3.6015625 14.677734 A 7.93 7.93 0 0 0 8.0019531 16 C 12.412949 16 16 12.410996 16 8 C 16 3.5890044 12.412949 0 8.0019531 0 L 7.9980469 0 z M 4.9882812 3.6582031 C 5.0872812 3.6582031 5.1758595 3.6639688 5.2558594 3.6679688 C 5.4908591 3.6779687 5.608672 3.6915004 5.7636719 4.0625 C 5.9566717 4.5274995 6.4264219 5.676922 6.4824219 5.7949219 C 6.5394218 5.9129218 6.597578 6.0715627 6.5175781 6.2265625 C 6.4425782 6.3865623 6.3758124 6.4577501 6.2578125 6.59375 C 6.1398126 6.7297499 6.0281561 6.8344689 5.9101562 6.9804688 C 5.8021564 7.1074686 5.6804064 7.2435159 5.8164062 7.4785156 C 5.9524061 7.7085154 6.4212819 8.4757975 7.1132812 9.0917969 C 8.0062804 9.8867961 8.7312346 10.140047 8.9902344 10.248047 C 9.1832342 10.328047 9.4136876 10.308203 9.5546875 10.158203 C 9.7336873 9.9652033 9.9546877 9.6450778 10.179688 9.3300781 C 10.339687 9.1040784 10.541906 9.0762501 10.753906 9.15625 C 10.969906 9.2312499 12.112656 9.7970626 12.347656 9.9140625 C 12.582656 10.032062 12.737922 10.0885 12.794922 10.1875 C 12.850922 10.2865 12.84925 10.750876 12.65625 11.296875 C 12.46325 11.841874 11.69889 12.293781 11.087891 12.425781 C 10.669891 12.514781 10.123154 12.586218 8.2851562 11.824219 C 5.9341586 10.85022 4.4207343 8.4616405 4.3027344 8.3066406 C 4.1897345 8.1516408 3.3515625 7.040577 3.3515625 5.8925781 C 3.3515625 4.7445793 3.9349221 4.1853123 4.1699219 3.9453125 C 4.3629217 3.7483127 4.6822816 3.6582031 4.9882812 3.6582031 z "
     style="fill:#f9f9f9" />
</svg>
